<mxfile host="app.diagrams.net" modified="2021-10-07T13:26:23.962Z" agent="5.0 (Windows NT 10.0; Win64; x64) AppleWebKit/537.36 (KHTML, like Gecko) Chrome/94.0.4606.71 Safari/537.36" etag="ug5FBGmG1RqaebgP2B-k" version="15.2.9" type="github">
  <diagram id="P5P-dQ92bHBuJAGadr8_" name="Page-1">
    <mxGraphModel dx="1344" dy="834" grid="1" gridSize="10" guides="1" tooltips="1" connect="1" arrows="1" fold="1" page="1" pageScale="1" pageWidth="850" pageHeight="1100" background="#F1FAEE" math="0" shadow="0">
      <root>
        <mxCell id="0" />
        <mxCell id="1" parent="0" />
      </root>
    </mxGraphModel>
  </diagram>
</mxfile>
